HIERARCHY
ROOT Hips
{
  OFFSET 0 0 0
  CHANNELS 6 Xposition Yposition Zposition Zrotation Yrotation Xrotation
  JOINT LeftThigh
  {
    OFFSET 8.409438 0 -5.917753
    CHANNELS 3 Zrotation Yrotation Xrotation
    JOINT LeftLeg
    {
      OFFSET 0 0 -42.358652
      CHANNELS 3 Zrotation Yrotation Xrotation
      JOINT LeftFoot
      {
        OFFSET 0 0 -39.357303
        CHANNELS 3 Zrotation Yrotation Xrotation
      }
    }
  }
  JOINT RightThigh
  {
    OFFSET -8.409438 0 -5.917753
    CHANNELS 3 Zrotation Yrotation Xrotation
    JOINT RightLeg
    {
      OFFSET 0 0 -42.358652
      CHANNELS 3 Zrotation Yrotation Xrotation
      JOINT RightFoot
      {
        OFFSET 0 0 -39.357303
        CHANNELS 3 Zrotation Yrotation Xrotation
      }
    }
  }
  JOINT SpineLow
  {
    OFFSET 0 0 4.719101
    CHANNELS 3 Zrotation Yrotation Xrotation
    JOINT SpineMid
    {
      OFFSET 0 0 12.899191
      CHANNELS 3 Zrotation Yrotation Xrotation
      JOINT Chest
      {
        OFFSET 0 0 12.899191
        CHANNELS 3 Zrotation Yrotation Xrotation
        JOINT LeftShoulder
        {
          OFFSET 7.550562 1.41573 9.438202
          CHANNELS 3 Zrotation Yrotation Xrotation
          JOINT LeftArm
          {
            OFFSET 9.155056 0 4.247191
            CHANNELS 3 Zrotation Yrotation Xrotation
            JOINT LeftForearm
            {
              OFFSET 0 0 25.771955
              CHANNELS 3 Zrotation Yrotation Xrotation
              JOINT LeftHand
              {
                OFFSET 0 0 25.197169
                CHANNELS 3 Zrotation Yrotation Xrotation
              }
            }
          }
        }
        JOINT RightShoulder
        {
          OFFSET -7.550562 1.41573 9.438202
          CHANNELS 3 Zrotation Yrotation Xrotation
          JOINT RightArm
          {
            OFFSET -9.155056 0 4.247191
            CHANNELS 3 Zrotation Yrotation Xrotation
            JOINT RightForearm
            {
              OFFSET 0 0 -25.771955
              CHANNELS 3 Zrotation Yrotation Xrotation
              JOINT RightHand
              {
                OFFSET 0 0 -25.197169
                CHANNELS 3 Zrotation Yrotation Xrotation
              }
            }
          }
        }
        JOINT Neck
        {
          OFFSET 0 0 15.101124
          CHANNELS 3 Zrotation Yrotation Xrotation
          JOINT Head
          {
            OFFSET 0 0 11.325843
            CHANNELS 3 Zrotation Yrotation Xrotation
            End Site
            {
              OFFSET 0 0 14.157303
            }
          }
        }
      }
    }
  }
}
MOTION
Frames: 17
Frame Time: 0.0
0.0  89.887642  0.0  3.97535  37.399233  -97.335969  5.809217  -8.678  -8.686796  -19.723894  14.031074  27.792934  2.28691  1.568315  2.933394  -11.436718  13.004645  4.316843  -20.472663  13.221436  22.235028  0.448433  3.950231  -1.23431  -0.313384  -1.62868  1.904543  -0.985717  -4.423856  5.234123  -0.985717  -4.423856  5.234123  -13.800289  28.115483  -13.639216  141.802515  35.835176  -144.062876  -8.175514  4.539749  60.90553  83.817294  -9.822129  2.653326  8.217233  9.487089  17.703711  18.151236  46.277182  -24.215598  44.778001  -44.955351  -124.118069  54.802806  -18.852563  -11.697592  -29.687962  5.566563  -2.859796  -22.222919  4.326097  -1.876883  
0.0  89.887642  0.0  4.232216  34.056763  -96.90369  7.165275  -7.996442  -7.034568  -20.089197  12.116228  26.109565  2.653819  1.560934  3.031772  -11.040794  13.102644  3.968071  -19.645643  12.738688  20.432774  0.551428  3.683025  -1.268983  0.46161  -1.455056  1.875837  1.149263  -4.010169  5.105168  1.149263  -4.010169  5.105168  -11.797806  26.398821  -11.924664  140.019755  34.757755  -146.998868  -9.459544  8.940139  70.497709  83.945888  -9.340651  -4.095238  7.386256  8.756838  17.002401  11.448639  45.700281  -32.261526  45.932125  -43.69988  -124.985885  56.635968  -16.426422  -11.727996  -30.11605  5.366393  -1.833064  -22.554593  4.127095  -1.111488  
0.0  89.887642  0.0  4.399295  29.996153  -96.603257  7.922788  -7.37314  -5.243391  -19.585699  10.03994  24.54453  3.225315  1.570131  3.165291  -11.112168  13.442059  3.102434  -18.130619  12.045257  19.005106  0.678039  3.370327  -1.275448  1.369526  -1.312359  1.715272  3.65164  -3.680994  4.616817  3.65164  -3.680994  4.616817  -9.585611  24.700019  -9.305508  137.330562  33.496173  -149.888753  -16.066862  11.167395  74.398388  77.814655  -9.887283  -2.582158  5.707172  8.01978  16.41525  5.235028  45.46534  -39.771726  45.36918  -41.961255  -125.021642  59.287688  -14.698314  -10.993221  -30.607098  5.551127  -0.451693  -22.93316  4.198475  -0.059481  
0.0  89.887642  0.0  4.487064  25.396826  -96.454361  7.877286  -6.852643  -3.402328  -17.787684  7.901222  23.233413  3.627501  1.537631  3.281597  -11.563297  13.843355  1.947283  -16.547462  11.294797  17.814592  0.942383  3.064953  -1.301676  2.385207  -1.094026  1.54751  6.45107  -3.138264  4.120176  6.45107  -3.138264  4.120176  -7.9198  22.423509  -6.494759  136.537949  32.514476  -152.178998  -23.843406  16.824594  75.842101  74.966852  -10.668666  2.048324  3.700867  6.849562  15.777517  -0.460382  46.115935  -47.334544  40.755085  -39.966241  -123.564771  63.47893  -13.411045  -9.555372  -31.10705  5.441017  1.16128  -23.323052  4.034051  1.151966  
0.0  89.887642  0.0  4.614294  20.468733  -96.385134  7.191331  -6.271429  -1.550579  -14.730695  5.771014  22.201971  3.662634  1.507561  3.240302  -12.422222  14.444134  0.63057  -14.965908  10.360656  16.772326  1.440139  2.728471  -1.318496  3.192192  -0.87084  1.41907  8.674946  -2.561783  3.757989  8.674945  -2.561783  3.757989  -5.470276  20.164341  -3.799146  139.306974  31.733893  -153.510199  -25.868482  22.728944  79.256699  75.349377  -10.821744  3.497707  2.15794  4.986415  14.629612  -5.650134  49.45646  -55.133906  31.080737  -37.909131  -120.188144  68.280038  -12.119885  -7.760275  -30.679044  5.253393  2.532529  -23.015261  3.824364  2.169326  
0.0  89.887642  0.0  4.932763  15.11703  -96.236238  6.587085  -5.642685  0.12752  -11.560054  4.11578  20.99059  4.470356  1.552504  3.425888  -13.215347  15.040817  -0.950243  -13.716015  9.477885  15.793037  2.152238  2.371607  -1.303039  3.812118  -0.7272  1.160941  10.385758  -2.164243  3.050796  10.385757  -2.164243  3.050796  -1.960112  18.511885  -0.385439  144.040887  30.582786  -155.331443  -24.480802  25.839232  83.812858  76.430153  -13.263149  4.234264  1.957952  4.018307  14.166328  -11.925382  52.66064  -63.857601  18.626847  -34.710097  -115.280474  72.534492  -10.711221  -4.583361  -29.369278  5.586194  3.885807  -22.04595  4.014037  3.190359  
0.0  89.887642  0.0  4.617243  7.930021  -96.899113  7.336034  -6.061977  2.182525  -7.846465  2.943934  20.047294  5.239319  1.560327  3.48614  -12.077603  14.886588  -1.714325  -12.566774  8.406047  14.901622  2.781891  1.930887  -1.232596  4.588567  -0.761575  0.93294  12.515277  -2.249343  2.396229  12.515276  -2.249343  2.396229  2.126587  16.645037  3.201336  149.580124  29.073461  -158.14668  -21.873824  27.150395  88.592568  76.341315  -16.263303  5.069586  1.640618  3.613431  13.370103  -18.477681  55.581745  -73.242052  4.531653  -29.908038  -109.291533  75.259979  -9.865153  -0.493577  -27.701335  5.921327  5.11202  -20.808662  4.21989  4.110172  
0.0  89.887642  0.0  4.392254  2.226658  -96.483188  6.556549  -5.97285  2.908676  -3.711428  1.960897  19.457425  5.634008  1.579478  3.523095  -12.357783  14.565209  -3.478613  -11.568713  7.091458  14.160241  3.291079  1.711903  -0.932126  5.070352  -0.677024  0.673247  13.843014  -1.981824  1.689897  13.843015  -1.981825  1.689897  5.389895  14.521195  5.550564  155.395437  27.416821  -162.061618  -19.626913  27.600614  92.432983  74.264342  -18.41545  6.720524  1.657514  3.234425  11.40043  -26.858174  57.829633  -83.665277  -9.074443  -23.460843  -103.578322  76.346047  -10.088312  3.645387  -25.891519  5.61636  5.778008  -19.458187  3.976344  4.578629  
0.0  89.887642  0.0  4.421418  -3.74933  -96.572056  6.820667  -5.553087  3.836692  -0.357241  1.034073  19.100733  6.195997  1.703408  3.625329  -11.551793  14.477916  -4.791688  -10.645224  5.981639  13.818969  3.415305  1.667083  -0.718469  5.621232  -0.482081  0.606926  15.354112  -1.450007  1.537276  15.354114  -1.450007  1.537276  7.468079  12.247116  6.369014  158.255789  25.586257  -168.311765  -19.860642  28.662614  94.706258  70.882827  -19.933009  7.907158  1.732956  2.421717  8.422534  -38.03493  58.842813  -95.171424  -20.030893  -16.645845  -99.125308  76.843021  -11.331973  7.468419  -23.414072  4.47065  7.175801  -17.606984  3.083856  5.560513  
0.0  89.887642  0.0  4.5184  -9.833615  -97.801798  7.844352  -5.095934  5.812661  2.723828  0.11439  18.9264  6.586314  1.810156  3.633354  -9.514402  14.319802  -4.533115  -10.079791  5.691039  13.366014  3.837084  1.648961  -0.787342  6.479907  -0.216516  0.674857  17.705262  -0.766801  1.771823  17.705261  -0.766801  1.771823  6.621865  9.289176  7.194917  159.025334  22.950554  -175.045085  -22.962266  30.970583  95.160336  68.533247  -20.954204  8.530581  -1.521329  1.707098  5.389488  -48.050188  58.284586  -105.800415  -27.405157  -10.87563  -95.241387  75.997214  -10.995893  10.178719  -23.231855  2.783999  7.53566  -17.457915  1.804759  5.76651  
0.0  89.887642  0.0  4.457372  -14.881221  -99.452146  9.549948  -5.351546  7.817081  4.68819  -0.266738  19.130399  6.628179  1.937101  3.571692  -7.663952  13.883199  -3.357054  -10.038553  6.015003  12.564843  5.021703  1.399369  -0.930943  7.272952  0.104219  0.705356  19.88099  0.07114  1.93919  19.880991  0.071139  1.93919  3.424187  6.623342  8.542782  160.436273  20.376646  179.044224  -27.531865  34.22848  93.675949  67.779795  -22.076541  9.250889  -5.226178  0.462907  2.486909  -57.101904  57.328743  -114.068772  -31.923965  -7.451108  -92.705653  75.827664  -11.492574  12.262988  -23.764644  0.021832  7.50354  -17.82699  -0.276232  5.638653  
0.0  89.887642  0.0  4.521377  -18.077903  -100.68136  11.369726  -6.111524  9.121923  5.046455  0.087745  19.567565  6.699796  2.149248  3.563607  -6.929251  13.71245  -2.226672  -9.587735  6.26176  11.448745  5.950173  1.056797  -0.992212  7.767182  0.379207  0.674163  21.240508  0.809246  1.941994  21.240507  0.809245  1.941994  -0.713016  4.543749  10.983742  163.299142  16.943151  175.440282  -29.904145  36.862533  91.925963  68.273541  -23.550562  8.435704  -9.07697  0.379781  -0.399065  -63.864349  55.828996  -119.211675  -33.102525  -5.164384  -90.847739  75.946267  -11.635074  13.509706  -24.453361  -2.003028  7.843301  -18.316143  -1.820176  5.812729  
0.0  89.887642  0.0  4.928774  -19.779482  -101.448583  13.290753  -6.905728  9.681294  5.608578  0.651553  21.073073  5.388039  2.212676  2.751249  -6.997051  14.343334  -1.768594  -8.536506  5.889461  10.735276  6.463781  0.728157  -1.185481  7.918162  0.642859  0.743336  21.66441  1.493859  2.216171  21.66441  1.493859  2.216171  0.033883  0.03038  11.646671  161.209521  10.673268  173.16231  -32.308798  38.798415  88.713842  68.763816  -24.197959  8.18229  -12.566979  1.537863  -4.244234  -69.525034  54.957588  -123.098007  -33.401669  -2.249605  -88.153647  76.107608  -10.929381  13.343799  -24.576879  -3.490183  7.571197  -18.387179  -2.928413  5.546709  
0.0  89.887642  0.0  5.351864  -21.015278  -102.544305  15.281079  -7.862877  10.339683  4.40812  1.493265  21.898661  5.302592  2.407405  2.730054  -6.677712  15.182398  -0.73801  -7.332749  5.107505  10.10247  6.367333  0.311134  -1.496257  7.951491  0.863495  1.092677  21.774674  1.973898  3.232479  21.774675  1.973898  3.232479  1.4925  -1.961597  10.906223  158.21914  6.917489  171.409369  -34.25758  40.876097  85.406315  70.052907  -30.749921  7.760516  -15.233963  2.593756  -8.88818  -77.618336  54.627045  -128.575385  -33.513099  0.658919  -85.380634  76.823218  -9.919832  13.601793  -24.315018  -4.691264  6.357862  -18.179636  -3.779  4.587204  
0.0  89.887642  0.0  3.825788  -20.543109  -100.926641  15.495784  -9.451842  8.522629  3.154343  2.195519  22.651952  5.323214  2.555545  2.75428  -7.78309  14.126546  -1.059909  -7.351822  4.303715  9.222527  5.924661  0.242632  -1.885488  7.514363  1.019409  0.978339  20.586064  2.453046  2.960604  20.586063  2.453046  2.960604  2.367856  -1.884428  10.614079  157.178054  5.177869  170.745868  -37.811209  45.912539  82.369155  72.104755  -35.006533  8.372482  -16.189824  3.679899  -12.258784  -87.739645  54.06714  -134.429055  -33.559216  3.736929  -83.190913  76.287261  -8.759548  15.288413  -23.410757  -5.369646  5.326021  -17.499956  -4.238955  3.791816  
0.0  89.887642  0.0  3.199741  -19.751704  -100.144919  15.169156  -10.153529  7.413364  2.005084  2.892976  23.333056  5.644248  2.627158  2.777452  -7.869907  13.572921  -0.767726  -9.454307  4.059255  8.088022  6.170908  0.496757  -1.727405  6.728658  1.126042  0.986626  18.44474  2.776832  2.986289  18.444739  2.776832  2.986289  5.848291  -0.986835  10.618956  157.550769  4.554716  171.045028  -39.75446  50.253251  81.854477  71.714951  -34.314544  11.591045  -14.599101  5.846938  -14.455556  -99.470141  52.460013  -140.328296  -34.173617  6.229471  -81.091431  74.813597  -7.598324  15.91052  -21.087069  -5.290088  4.255237  -15.768085  -4.120381  3.010305  
0.0  89.887642  0.0  3.448244  -20.582614  -101.214168  16.116266  -10.734786  7.994652  1.407514  3.553133  23.973518  5.910568  2.673198  2.611368  -5.427075  13.338413  0.91934  -11.646376  4.37576  7.090384  6.487912  0.684459  -1.308569  6.112934  0.995795  1.137313  16.758696  2.414972  3.338002  16.758696  2.414971  3.338002  9.973663  1.109199  10.863299  159.554002  5.942864  170.891017  -38.971816  50.895671  83.020097  70.273308  -30.565337  14.463237  -12.557075  9.103221  -16.090348  -109.305241  51.617864  -145.018424  -34.718031  7.936782  -79.362909  74.346062  -6.693852  15.181425  -19.016545  -3.889438  3.345694  -14.236141  -3.024762  2.3898  
